<?xml version="1.0" encoding="UTF-8"?>
<!DOCTYPE svg PUBLIC "-//W3C//DTD SVG 1.1//EN" "http://www.w3.org/Graphics/SVG/1.1/DTD/svg11.dtd">
<svg xmlns="http://www.w3.org/2000/svg" version="1.1" width="831px" height="249px" style="shape-rendering:geometricPrecision; text-rendering:geometricPrecision; image-rendering:optimizeQuality; fill-rule:evenodd; clip-rule:evenodd" xmlns:xlink="http://www.w3.org/1999/xlink">
<g><path style="opacity:1" fill="#010101" d="M -0.5,-0.5 C 276.5,-0.5 553.5,-0.5 830.5,-0.5C 830.5,82.5 830.5,165.5 830.5,248.5C 553.5,248.5 276.5,248.5 -0.5,248.5C -0.5,165.5 -0.5,82.5 -0.5,-0.5 Z"/></g>
<g><path style="opacity:1" fill="#fbfbfb" d="M 138.5,41.5 C 147.652,42.4936 156.985,42.8269 166.5,42.5C 166.5,44.5 166.5,46.5 166.5,48.5C 156.985,48.1731 147.652,48.5064 138.5,49.5C 137.339,63.3272 137.173,77.3272 138,91.5C 138.232,92.7375 138.732,93.7375 139.5,94.5C 140.52,98.3584 142.853,101.192 146.5,103C 151.854,103.529 157.187,103.362 162.5,102.5C 164.262,102.643 165.929,102.309 167.5,101.5C 168.729,104.199 168.729,106.865 167.5,109.5C 158.876,111.806 150.21,111.973 141.5,110C 136.916,107.646 133.583,104.146 131.5,99.5C 131.167,96.8333 130.833,94.1667 130.5,91.5C 130.5,65.5 130.5,39.5 130.5,13.5C 132.833,13.5 135.167,13.5 137.5,13.5C 137.173,23.015 137.506,32.3483 138.5,41.5 Z"/></g>
<g><path style="opacity:1" fill="#fafafa" d="M 268.5,95.5 C 268.642,98.617 269.976,101.117 272.5,103C 276.188,103.45 279.854,103.283 283.5,102.5C 283.833,105.167 284.167,107.833 284.5,110.5C 279.528,111.422 274.528,111.588 269.5,111C 264.462,108.755 261.462,104.922 260.5,99.5C 260.5,70.8333 260.5,42.1667 260.5,13.5C 262.833,13.5 265.167,13.5 267.5,13.5C 267.169,41.0051 267.502,68.3384 268.5,95.5 Z"/></g>
<g><path style="opacity:1" fill="#bcbcbc" d="M 138.5,41.5 C 137.506,32.3483 137.173,23.015 137.5,13.5C 135.167,13.5 132.833,13.5 130.5,13.5C 130.5,39.5 130.5,65.5 130.5,91.5C 130.167,91.5 129.833,91.5 129.5,91.5C 129.5,65.1667 129.5,38.8333 129.5,12.5C 132.5,12.5 135.5,12.5 138.5,12.5C 138.5,22.1667 138.5,31.8333 138.5,41.5 Z"/></g>
<g><path style="opacity:1" fill="#a8a8a8" d="M 268.5,95.5 C 267.502,68.3384 267.169,41.0051 267.5,13.5C 265.167,13.5 262.833,13.5 260.5,13.5C 260.5,42.1667 260.5,70.8333 260.5,99.5C 259.502,70.6715 259.169,41.6715 259.5,12.5C 262.5,12.5 265.5,12.5 268.5,12.5C 268.5,40.1667 268.5,67.8333 268.5,95.5 Z"/></g>
<g><path style="opacity:1" fill="#0beae8" d="M 23.5,15.5 C 33.9838,14.8953 36.3172,19.0619 30.5,28C 24.7416,29.2527 21.4083,26.9194 20.5,21C 20.8627,18.8077 21.8627,16.9744 23.5,15.5 Z"/></g>
<g><path style="opacity:1" fill="#09eae9" d="M 303.5,15.5 C 311.321,13.8328 314.821,16.8328 314,24.5C 310.261,29.2766 306.261,29.61 302,25.5C 301.232,21.9255 301.732,18.5921 303.5,15.5 Z"/></g>
<g><path style="opacity:1" fill="#f7f7f7" d="M 62.5,51.5 C 61.5029,70.9929 61.1696,90.6596 61.5,110.5C 58.8333,110.5 56.1667,110.5 53.5,110.5C 53.5,88.5 53.5,66.5 53.5,44.5C 65.2281,40.8787 77.2281,39.7121 89.5,41C 99.3479,42.0017 105.848,47.1683 109,56.5C 109.5,74.4969 109.667,92.4969 109.5,110.5C 106.833,110.5 104.167,110.5 101.5,110.5C 101.667,94.1633 101.5,77.8299 101,61.5C 99.5,54.6667 95.3333,50.5 88.5,49C 79.6062,48.0026 70.9395,48.8359 62.5,51.5 Z"/></g>
<g><path style="opacity:1" fill="#c3c3c3" d="M 138.5,41.5 C 148.167,41.5 157.833,41.5 167.5,41.5C 167.5,44.1667 167.5,46.8333 167.5,49.5C 157.833,49.5 148.167,49.5 138.5,49.5C 147.652,48.5064 156.985,48.1731 166.5,48.5C 166.5,46.5 166.5,44.5 166.5,42.5C 156.985,42.8269 147.652,42.4936 138.5,41.5 Z"/></g>
<g><path style="opacity:1" fill="#989898" d="M 206.5,40.5 C 204.485,41.9238 202.152,42.5905 199.5,42.5C 201.515,41.0762 203.848,40.4095 206.5,40.5 Z"/></g>
<g><path style="opacity:1" fill="#f4f4f4" d="M 206.5,40.5 C 215.528,39.5561 223.861,41.3894 231.5,46C 234.848,48.5014 237.182,51.6681 238.5,55.5C 240.132,62.0442 240.799,68.7109 240.5,75.5C 240.768,77.099 240.434,78.4324 239.5,79.5C 223.5,79.5 207.5,79.5 191.5,79.5C 191.194,82.3854 191.527,85.0521 192.5,87.5C 193.874,94.0863 197.541,98.9197 203.5,102C 215.295,104.789 226.628,103.622 237.5,98.5C 238.652,101.106 238.818,103.773 238,106.5C 195.634,120.146 177.634,104.812 184,60.5C 186.528,52.1442 191.695,46.1442 199.5,42.5C 202.152,42.5905 204.485,41.9238 206.5,40.5 Z"/></g>
<g><path style="opacity:1" fill="#fefefe" d="M 23.5,42.5 C 25.8333,42.5 28.1667,42.5 30.5,42.5C 30.5,65.1667 30.5,87.8333 30.5,110.5C 28.1667,110.5 25.8333,110.5 23.5,110.5C 23.5,87.8333 23.5,65.1667 23.5,42.5 Z"/></g>
<g><path style="opacity:1" fill="#cacaca" d="M 23.5,42.5 C 23.5,42.1667 23.5,41.8333 23.5,41.5C 26.1667,41.5 28.8333,41.5 31.5,41.5C 31.5,64.5 31.5,87.5 31.5,110.5C 31.1667,110.5 30.8333,110.5 30.5,110.5C 30.5,87.8333 30.5,65.1667 30.5,42.5C 28.1667,42.5 25.8333,42.5 23.5,42.5 Z"/></g>
<g><path style="opacity:1" fill="#cacaca" d="M 311.5,41.5 C 311.5,41.8333 311.5,42.1667 311.5,42.5C 309.167,42.5 306.833,42.5 304.5,42.5C 304.5,65.1667 304.5,87.8333 304.5,110.5C 304.167,110.5 303.833,110.5 303.5,110.5C 303.5,87.5 303.5,64.5 303.5,41.5C 306.167,41.5 308.833,41.5 311.5,41.5 Z"/></g>
<g><path style="opacity:1" fill="#fefefe" d="M 311.5,42.5 C 311.5,65.1667 311.5,87.8333 311.5,110.5C 309.167,110.5 306.833,110.5 304.5,110.5C 304.5,87.8333 304.5,65.1667 304.5,42.5C 306.833,42.5 309.167,42.5 311.5,42.5 Z"/></g>
<g><path style="opacity:1" fill="#828282" d="M 23.5,41.5 C 23.5,41.8333 23.5,42.1667 23.5,42.5C 23.5,65.1667 23.5,87.8333 23.5,110.5C 25.8333,110.5 28.1667,110.5 30.5,110.5C 30.8333,110.5 31.1667,110.5 31.5,110.5C 28.7131,111.477 25.7131,111.81 22.5,111.5C 22.1691,87.994 22.5025,64.6607 23.5,41.5 Z"/></g>
<g><path style="opacity:1" fill="#828282" d="M 311.5,41.5 C 312.498,64.6607 312.831,87.994 312.5,111.5C 309.287,111.81 306.287,111.477 303.5,110.5C 303.833,110.5 304.167,110.5 304.5,110.5C 306.833,110.5 309.167,110.5 311.5,110.5C 311.5,87.8333 311.5,65.1667 311.5,42.5C 311.5,42.1667 311.5,41.8333 311.5,41.5 Z"/></g>
<g><path style="opacity:1" fill="#040404" d="M 232.5,71.5 C 219.167,71.5 205.833,71.5 192.5,71.5C 192.505,67.4659 192.838,63.4659 193.5,59.5C 194.863,55.298 197.53,52.1314 201.5,50C 209.8,47.51 217.8,48.1767 225.5,52C 231.261,57.1797 233.594,63.6797 232.5,71.5 Z"/></g>
<g><path style="opacity:1" fill="#c1c1c1" d="M 138.5,49.5 C 138.232,64.5288 138.566,79.5288 139.5,94.5C 138.732,93.7375 138.232,92.7375 138,91.5C 137.173,77.3272 137.339,63.3272 138.5,49.5 Z"/></g>
<g><path style="opacity:1" fill="#898989" d="M 238.5,55.5 C 239.6,57.2774 240.434,59.2774 241,61.5C 241.815,66.3522 241.648,71.0189 240.5,75.5C 240.799,68.7109 240.132,62.0442 238.5,55.5 Z"/></g>
<g><path style="opacity:1" fill="#767676" d="M 193.5,59.5 C 192.838,63.4659 192.505,67.4659 192.5,71.5C 205.833,71.5 219.167,71.5 232.5,71.5C 219.01,72.4957 205.344,72.829 191.5,72.5C 191.335,69.1501 191.502,65.8168 192,62.5C 192.232,61.2625 192.732,60.2625 193.5,59.5 Z"/></g>
<g><path style="opacity:1" fill="#2b2b2b" d="M 239.5,79.5 C 224.009,80.4963 208.342,80.8296 192.5,80.5C 192.5,82.8333 192.5,85.1667 192.5,87.5C 191.527,85.0521 191.194,82.3854 191.5,79.5C 207.5,79.5 223.5,79.5 239.5,79.5 Z"/></g>
<g><path style="opacity:1" fill="#474747" d="M 129.5,91.5 C 129.833,91.5 130.167,91.5 130.5,91.5C 130.833,94.1667 131.167,96.8333 131.5,99.5C 129.96,97.1617 129.294,94.4951 129.5,91.5 Z"/></g>
<g><path style="opacity:1" fill="#b7b7b7" d="M 167.5,109.5 C 168.729,106.865 168.729,104.199 167.5,101.5C 165.929,102.309 164.262,102.643 162.5,102.5C 164.515,101.076 166.848,100.41 169.5,100.5C 169.38,102.734 169.713,104.901 170.5,107C 170.252,108.749 169.252,109.582 167.5,109.5 Z"/></g>
<g><path style="opacity:1" fill="#6e6e6e" d="M 62.5,51.5 C 62.5,71.5 62.5,91.5 62.5,111.5C 59.2869,111.81 56.2869,111.477 53.5,110.5C 56.1667,110.5 58.8333,110.5 61.5,110.5C 61.1696,90.6596 61.5029,70.9929 62.5,51.5 Z"/></g>
<g><path style="opacity:1" fill="#f8f8f8" d="M 258.5,169.5 C 258.41,172.152 259.076,174.485 260.5,176.5C 263.675,200.831 253.675,216.831 230.5,224.5C 223.191,225.248 215.858,225.582 208.5,225.5C 206.485,224.076 204.152,223.41 201.5,223.5C 187.5,218.164 178.834,208.164 175.5,193.5C 175.114,185.381 175.781,177.381 177.5,169.5C 185.329,152.198 198.829,143.531 218,143.5C 237.171,143.531 250.671,152.198 258.5,169.5 Z"/></g>
<g><path style="opacity:1" fill="#f6f6f6" d="M 288.5,174.5 C 286.981,177.526 286.315,180.859 286.5,184.5C 286.503,187.025 286.837,189.359 287.5,191.5C 293.364,208.936 305.364,215.769 323.5,212C 328.5,210.318 333,207.818 337,204.5C 340.453,206.95 343.62,209.783 346.5,213C 333.717,224.947 318.717,228.947 301.5,225C 285.199,219.535 275.532,208.368 272.5,191.5C 272.152,184.045 272.818,176.712 274.5,169.5C 279.841,155.644 289.841,147.144 304.5,144C 320.005,141.834 333.838,145.668 346,155.5C 344.422,159.114 341.922,162.281 338.5,165C 335.906,165.449 333.906,164.449 332.5,162C 317.403,153.1 303.903,154.933 292,167.5C 290.295,169.577 289.128,171.91 288.5,174.5 Z"/></g>
<g><path style="opacity:1" fill="#f5f5f5" d="M 469.5,143.5 C 485.533,141.669 499.533,146.002 511.5,156.5C 508.801,160.033 505.634,163.033 502,165.5C 485.68,152.591 470.347,153.591 456,168.5C 448.306,183.31 450.473,196.477 462.5,208C 476.788,216.337 489.955,214.837 502,203.5C 505.015,206.683 508.182,209.683 511.5,212.5C 505.418,219.547 497.751,224.047 488.5,226C 461.742,229.223 444.575,218.056 437,192.5C 434.45,167.228 445.283,150.894 469.5,143.5 Z"/></g>
<g><path style="opacity:1" fill="#f8f8f8" d="M 25.5,144.5 C 40.837,144.333 56.1703,144.5 71.5,145C 79.5355,146.237 85.8689,150.07 90.5,156.5C 91.254,161.463 91.5874,166.463 91.5,171.5C 90.2487,176.262 87.5821,180.095 83.5,183C 96.069,189.319 99.9023,199.153 95,212.5C 89.6697,219.749 82.5031,223.749 73.5,224.5C 57.5,224.5 41.5,224.5 25.5,224.5C 25.5,197.833 25.5,171.167 25.5,144.5 Z"/></g>
<g><path style="opacity:1" fill="#fdfdfd" d="M 113.5,144.5 C 118.167,144.5 122.833,144.5 127.5,144.5C 127.5,167.167 127.5,189.833 127.5,212.5C 141.5,212.5 155.5,212.5 169.5,212.5C 169.5,216.5 169.5,220.5 169.5,224.5C 150.833,224.5 132.167,224.5 113.5,224.5C 113.5,197.833 113.5,171.167 113.5,144.5 Z"/></g>
<g><path style="opacity:1" fill="#fafafa" d="M 361.5,144.5 C 366.167,144.5 370.833,144.5 375.5,144.5C 375.167,158.183 375.501,171.85 376.5,185.5C 377.107,185.376 377.44,185.043 377.5,184.5C 389.599,170.899 402.266,157.732 415.5,145C 421.167,144.333 426.833,144.333 432.5,145C 413.995,165.005 395.328,184.838 376.5,204.5C 375.509,210.979 375.176,217.646 375.5,224.5C 370.833,224.5 366.167,224.5 361.5,224.5C 361.5,197.833 361.5,171.167 361.5,144.5 Z"/></g>
<g><path style="opacity:1" fill="#fefefe" d="M 526.5,144.5 C 531.167,144.5 535.833,144.5 540.5,144.5C 540.5,155.833 540.5,167.167 540.5,178.5C 554.677,178.829 568.677,178.496 582.5,177.5C 583.494,167.013 583.828,156.346 583.5,145.5C 587.833,145.5 592.167,145.5 596.5,145.5C 596.5,171.833 596.5,198.167 596.5,224.5C 592.167,224.5 587.833,224.5 583.5,224.5C 583.828,212.988 583.495,201.654 582.5,190.5C 568.833,190.5 555.167,190.5 541.5,190.5C 540.505,201.654 540.172,212.988 540.5,224.5C 535.833,224.5 531.167,224.5 526.5,224.5C 526.5,197.833 526.5,171.167 526.5,144.5 Z"/></g>
<g><path style="opacity:1" fill="#f5f5f5" d="M 694.5,223.5 C 689.695,224.487 684.695,224.821 679.5,224.5C 670.461,203.418 661.128,182.418 651.5,161.5C 641.432,182.209 632.099,203.209 623.5,224.5C 618.305,224.821 613.305,224.487 608.5,223.5C 620.155,197.522 631.821,171.522 643.5,145.5C 648.833,144.167 654.167,144.167 659.5,145.5C 671.212,171.583 682.879,197.583 694.5,223.5 Z"/></g>
<g><path style="opacity:1" fill="#fbfbfb" d="M 797.5,196.5 C 797.369,197.376 797.702,198.043 798.5,198.5C 799.5,180.512 799.833,162.512 799.5,144.5C 804.167,144.5 808.833,144.5 813.5,144.5C 813.5,171.167 813.5,197.833 813.5,224.5C 809.5,224.5 805.5,224.5 801.5,224.5C 787.177,207.206 772.844,189.873 758.5,172.5C 758.44,171.957 758.107,171.624 757.5,171.5C 756.5,189.154 756.167,206.821 756.5,224.5C 751.833,224.5 747.167,224.5 742.5,224.5C 742.5,197.833 742.5,171.167 742.5,144.5C 746.884,144.174 751.217,144.508 755.5,145.5C 769.553,162.544 783.553,179.544 797.5,196.5 Z"/></g>
<g><path style="opacity:1" fill="#8b8b8b" d="M 361.5,144.5 C 361.5,171.167 361.5,197.833 361.5,224.5C 366.167,224.5 370.833,224.5 375.5,224.5C 375.176,217.646 375.509,210.979 376.5,204.5C 376.5,211.5 376.5,218.5 376.5,225.5C 371.167,225.5 365.833,225.5 360.5,225.5C 360.169,198.328 360.502,171.328 361.5,144.5 Z"/></g>
<g><path style="opacity:1" fill="#888888" d="M 375.5,144.5 C 376.167,157.833 376.833,171.167 377.5,184.5C 377.44,185.043 377.107,185.376 376.5,185.5C 375.501,171.85 375.167,158.183 375.5,144.5 Z"/></g>
<g><path style="opacity:1" fill="#656565" d="M 799.5,144.5 C 799.833,162.512 799.5,180.512 798.5,198.5C 797.702,198.043 797.369,197.376 797.5,196.5C 798.167,179.167 798.833,161.833 799.5,144.5 Z"/></g>
<g><path style="opacity:1" fill="#e2e2e2" d="M 597.5,224.5 C 597.167,224.5 596.833,224.5 596.5,224.5C 596.5,198.167 596.5,171.833 596.5,145.5C 592.167,145.5 587.833,145.5 583.5,145.5C 583.828,156.346 583.494,167.013 582.5,177.5C 582.5,166.5 582.5,155.5 582.5,144.5C 587.5,144.5 592.5,144.5 597.5,144.5C 597.5,171.167 597.5,197.833 597.5,224.5 Z"/></g>
<g><path style="opacity:1" fill="#dedede" d="M 705.5,144.5 C 710.5,144.5 715.5,144.5 720.5,144.5C 720.5,171.5 720.5,198.5 720.5,225.5C 715.5,225.5 710.5,225.5 705.5,225.5C 705.5,198.5 705.5,171.5 705.5,144.5 Z"/></g>
<g><path style="opacity:1" fill="#fefefe" d="M 706.5,145.5 C 710.833,145.5 715.167,145.5 719.5,145.5C 719.5,171.833 719.5,198.167 719.5,224.5C 715.167,224.5 710.833,224.5 706.5,224.5C 706.5,198.167 706.5,171.833 706.5,145.5 Z"/></g>
<g><path style="opacity:1" fill="#050505" d="M 40.5,156.5 C 50.8829,156.162 61.2163,156.662 71.5,158C 78.2018,162.401 79.2018,167.901 74.5,174.5C 72.0748,176.145 69.4081,177.311 66.5,178C 57.8397,178.5 49.1731,178.666 40.5,178.5C 40.5,171.167 40.5,163.833 40.5,156.5 Z"/></g>
<g><path style="opacity:1" fill="#050505" d="M 211.5,156.5 C 235.705,155.87 247.205,167.537 246,191.5C 239.991,207.423 228.491,214.59 211.5,213C 194.807,207.138 187.64,195.305 190,177.5C 193.454,166.544 200.621,159.544 211.5,156.5 Z"/></g>
<g><path style="opacity:1" fill="#bababa" d="M 90.5,156.5 C 91.9908,159.186 92.6575,162.186 92.5,165.5C 92.4954,167.696 92.162,169.696 91.5,171.5C 91.5874,166.463 91.254,161.463 90.5,156.5 Z"/></g>
<g><path style="opacity:1" fill="#6c6c6c" d="M 813.5,144.5 C 814.498,171.328 814.831,198.328 814.5,225.5C 809.968,225.818 805.634,225.485 801.5,224.5C 805.5,224.5 809.5,224.5 813.5,224.5C 813.5,197.833 813.5,171.167 813.5,144.5 Z"/></g>
<g><path style="opacity:1" fill="#a2a2a2" d="M 258.5,169.5 C 259.924,171.515 260.59,173.848 260.5,176.5C 259.076,174.485 258.41,172.152 258.5,169.5 Z"/></g>
<g><path style="opacity:1" fill="#868686" d="M 540.5,144.5 C 541.495,155.321 541.828,166.321 541.5,177.5C 555.167,177.5 568.833,177.5 582.5,177.5C 568.677,178.496 554.677,178.829 540.5,178.5C 540.5,167.167 540.5,155.833 540.5,144.5 Z"/></g>
<g><path style="opacity:1" fill="#949494" d="M 177.5,169.5 C 175.781,177.381 175.114,185.381 175.5,193.5C 174.347,187.681 174.181,181.681 175,175.5C 175.566,173.277 176.4,171.277 177.5,169.5 Z"/></g>
<g><path style="opacity:1" fill="#acacac" d="M 274.5,169.5 C 272.818,176.712 272.152,184.045 272.5,191.5C 271.349,186.35 271.183,181.016 272,175.5C 272.566,173.277 273.4,171.277 274.5,169.5 Z"/></g>
<g><path style="opacity:1" fill="#6f6f6f" d="M 288.5,174.5 C 287.708,180.13 287.375,185.797 287.5,191.5C 286.837,189.359 286.503,187.025 286.5,184.5C 286.315,180.859 286.981,177.526 288.5,174.5 Z"/></g>
<g><path style="opacity:1" fill="#f6f6f6" d="M 432.5,222.5 C 427.604,224.446 422.271,225.113 416.5,224.5C 409.19,215.519 401.857,206.519 394.5,197.5C 397.5,193.833 400.833,190.5 404.5,187.5C 413.857,199.186 423.19,210.852 432.5,222.5 Z"/></g>
<g><path style="opacity:1" fill="#030303" d="M 40.5,190.5 C 50.8387,190.334 61.172,190.5 71.5,191C 79.7714,192.475 82.9381,197.308 81,205.5C 78.8046,210.511 74.9712,212.844 69.5,212.5C 59.8333,212.5 50.1667,212.5 40.5,212.5C 40.5,205.167 40.5,197.833 40.5,190.5 Z"/></g>
<g><path style="opacity:1" fill="#2b2b2b" d="M 541.5,191.5 C 541.5,191.167 541.5,190.833 541.5,190.5C 555.167,190.5 568.833,190.5 582.5,190.5C 582.5,202.167 582.5,213.833 582.5,225.5C 581.505,214.346 581.172,203.012 581.5,191.5C 568.167,191.5 554.833,191.5 541.5,191.5 Z"/></g>
<g><path style="opacity:1" fill="#b8b8b8" d="M 582.5,190.5 C 583.495,201.654 583.828,212.988 583.5,224.5C 587.833,224.5 592.167,224.5 596.5,224.5C 596.833,224.5 597.167,224.5 597.5,224.5C 592.695,225.487 587.695,225.821 582.5,225.5C 582.5,213.833 582.5,202.167 582.5,190.5 Z"/></g>
<g><path style="opacity:1" fill="#aaaaaa" d="M 758.5,172.5 C 757.503,189.992 757.17,207.659 757.5,225.5C 752.305,225.821 747.305,225.487 742.5,224.5C 747.167,224.5 751.833,224.5 756.5,224.5C 756.167,206.821 756.5,189.154 757.5,171.5C 758.107,171.624 758.44,171.957 758.5,172.5 Z"/></g>
<g><path style="opacity:1" fill="#7d7d7d" d="M 526.5,144.5 C 526.5,171.167 526.5,197.833 526.5,224.5C 531.167,224.5 535.833,224.5 540.5,224.5C 540.172,212.988 540.505,201.654 541.5,190.5C 541.5,190.833 541.5,191.167 541.5,191.5C 541.5,202.833 541.5,214.167 541.5,225.5C 536.167,225.5 530.833,225.5 525.5,225.5C 525.169,198.328 525.502,171.328 526.5,144.5 Z"/></g>
<g><path style="opacity:1" fill="#3d3d3d" d="M 127.5,144.5 C 128.497,166.66 128.831,188.994 128.5,211.5C 142.344,211.171 156.01,211.504 169.5,212.5C 155.5,212.5 141.5,212.5 127.5,212.5C 127.5,189.833 127.5,167.167 127.5,144.5 Z"/></g>
<g><path style="opacity:1" fill="#525252" d="M 40.5,190.5 C 40.5,197.833 40.5,205.167 40.5,212.5C 50.1667,212.5 59.8333,212.5 69.5,212.5C 59.6806,213.494 49.6806,213.827 39.5,213.5C 39.1746,205.648 39.508,197.982 40.5,190.5 Z"/></g>
<g><path style="opacity:1" fill="#929292" d="M 25.5,144.5 C 25.5,171.167 25.5,197.833 25.5,224.5C 41.5,224.5 57.5,224.5 73.5,224.5C 57.3419,225.496 41.0085,225.83 24.5,225.5C 24.1688,198.328 24.5021,171.328 25.5,144.5 Z"/></g>
<g><path style="opacity:1" fill="#a5a5a5" d="M 113.5,144.5 C 113.5,171.167 113.5,197.833 113.5,224.5C 132.167,224.5 150.833,224.5 169.5,224.5C 169.5,220.5 169.5,216.5 169.5,212.5C 170.485,216.634 170.818,220.968 170.5,225.5C 151.167,225.5 131.833,225.5 112.5,225.5C 112.169,198.328 112.502,171.328 113.5,144.5 Z"/></g>
<g><path style="opacity:1" fill="#9c9c9c" d="M 201.5,223.5 C 204.152,223.41 206.485,224.076 208.5,225.5C 205.848,225.59 203.515,224.924 201.5,223.5 Z"/></g>
<g><path style="opacity:1" fill="#a9a9a9" d="M 432.5,222.5 C 433.478,222.811 434.145,223.478 434.5,224.5C 428.346,225.817 422.346,225.817 416.5,224.5C 422.271,225.113 427.604,224.446 432.5,222.5 Z"/></g>
<g><path style="opacity:1" fill="#a0a0a0" d="M 608.5,223.5 C 613.305,224.487 618.305,224.821 623.5,224.5C 618.32,225.815 612.986,225.815 607.5,224.5C 607.624,223.893 607.957,223.56 608.5,223.5 Z"/></g>
<g><path style="opacity:1" fill="#a1a1a1" d="M 694.5,223.5 C 695.043,223.56 695.376,223.893 695.5,224.5C 690.014,225.815 684.68,225.815 679.5,224.5C 684.695,224.821 689.695,224.487 694.5,223.5 Z"/></g>
<g><path style="opacity:1" fill="#898989" d="M 230.5,224.5 C 226.44,226.017 222.107,226.684 217.5,226.5C 214.314,226.498 211.314,226.165 208.5,225.5C 215.858,225.582 223.191,225.248 230.5,224.5 Z"/></g>
</svg>
